<svg width="35" height="35" viewBox="0 0 35 35" fill="none" xmlns="http://www.w3.org/2000/svg">
<path d="M17.5 0C7.8506 0 0 7.8506 0 17.5C0 27.1494 7.8506 35 17.5 35C27.1494 35 35 27.1494 35 17.5C35 7.8506 27.1494 0 17.5 0ZM29.5313 25.5769H25.7267C25.6088 25.5767 25.493 25.5454 25.391 25.4864C25.289 25.4273 25.2043 25.3425 25.1453 25.2404L23.7874 22.9115C23.698 22.7593 23.672 22.578 23.715 22.4067L24.9653 17.3654C24.9903 17.2638 25.0388 17.1695 25.1067 17.0899C25.1746 17.0103 25.2601 16.9476 25.3565 16.9069L27.7207 15.9056C27.8362 15.8567 27.9631 15.8409 28.0871 15.8603C28.2111 15.8796 28.3272 15.9332 28.4224 16.015L31.9249 19.0287C32.0112 19.1031 32.0773 19.1981 32.1169 19.3049C32.1564 19.4118 32.1683 19.5269 32.1512 19.6395C31.8611 21.6296 31.1659 23.539 30.1084 25.2496C30.0487 25.3494 29.9641 25.432 29.863 25.4893C29.7618 25.5467 29.6475 25.5769 29.5313 25.5769ZM7.27933 15.9124L9.64351 16.9136C9.73987 16.9543 9.82541 17.017 9.89332 17.0966C9.96123 17.1762 10.0097 17.2705 10.0347 17.3721L11.285 22.4135C11.328 22.5847 11.302 22.766 11.2126 22.9183L9.85469 25.2404C9.79574 25.3425 9.71102 25.4273 9.60899 25.4864C9.50696 25.5454 9.39121 25.5767 9.27332 25.5769H5.46875C5.35368 25.577 5.24052 25.5476 5.14006 25.4914C5.03961 25.4353 4.95522 25.3544 4.89495 25.2564C3.8375 23.5457 3.14224 21.6363 2.85216 19.6463C2.83511 19.5336 2.84693 19.4185 2.88651 19.3117C2.92609 19.2048 2.99215 19.1098 3.07849 19.0355L6.58101 16.0218C6.67582 15.9406 6.79134 15.8873 6.91466 15.868C7.03797 15.8487 7.16423 15.8641 7.27933 15.9124V15.9124ZM28.8969 8.57248L27.3766 12.8953C27.346 12.9837 27.2974 13.0647 27.2338 13.1332C27.1702 13.2017 27.093 13.2562 27.0072 13.2933L24.5185 14.3475C24.4043 14.3958 24.279 14.4116 24.1563 14.3932C24.0337 14.3748 23.9185 14.3229 23.8236 14.2431L19.0901 10.2728C19.0145 10.2103 18.9535 10.1319 18.9113 10.0432C18.8692 9.95458 18.8469 9.85778 18.8462 9.75962V6.93437C18.8462 6.82368 18.8736 6.7147 18.9258 6.61711C18.9781 6.51952 19.0536 6.43632 19.1457 6.37488L22.7492 3.97368C22.8432 3.91091 22.9515 3.87284 23.0642 3.86299C23.1768 3.85314 23.2901 3.87182 23.3936 3.91731C25.4671 4.82164 27.3071 6.18666 28.774 7.90865C28.8512 7.99868 28.9031 8.10749 28.9247 8.22405C28.9463 8.34062 28.9367 8.46081 28.8969 8.57248V8.57248ZM12.25 3.97368L15.8543 6.37488C15.9464 6.43632 16.0219 6.51952 16.0742 6.61711C16.1264 6.7147 16.1538 6.82368 16.1538 6.93437V9.75962C16.1538 9.85794 16.1323 9.95507 16.0907 10.0442C16.0492 10.1333 15.9886 10.2122 15.9132 10.2754L11.1798 14.2457C11.0848 14.3254 10.9697 14.3773 10.847 14.3957C10.7244 14.4141 10.5991 14.3983 10.4849 14.35L7.99279 13.2933C7.90642 13.2567 7.82865 13.2025 7.76447 13.1341C7.70029 13.0657 7.6511 12.9847 7.62007 12.8962L6.09976 8.57332C6.06025 8.46125 6.05112 8.34072 6.07328 8.22398C6.09545 8.10724 6.14813 7.99844 6.22596 7.90865C7.69369 6.18492 9.53527 4.8187 11.6106 3.91394C11.7137 3.86984 11.8262 3.8522 11.9379 3.86263C12.0495 3.87306 12.1568 3.91124 12.25 3.97368V3.97368ZM13.7064 31.5244L12.0464 27.3438C12.0084 27.2487 11.9926 27.1463 12.0002 27.0442C12.0078 26.9422 12.0386 26.8432 12.0901 26.7548L13.3665 24.5673C13.4254 24.4652 13.5101 24.3804 13.6122 24.3213C13.7142 24.2623 13.8299 24.231 13.9478 24.2308H21.0522C21.1701 24.231 21.2858 24.2623 21.3878 24.3213C21.4899 24.3804 21.5746 24.4652 21.6335 24.5673L22.9107 26.7548C22.9624 26.8431 22.9933 26.9421 23.001 27.0441C23.0088 27.1462 22.9931 27.2487 22.9553 27.3438L21.3071 31.5227C21.2668 31.6249 21.2021 31.7156 21.1186 31.7871C21.0352 31.8585 20.9355 31.9084 20.8284 31.9325C18.6413 32.4344 16.3688 32.4344 14.1817 31.9325C14.0754 31.9081 13.9765 31.8582 13.8937 31.7871C13.8109 31.716 13.7466 31.6259 13.7064 31.5244V31.5244Z" fill="url(#paint0_linear)"/>
<defs>
<linearGradient id="paint0_linear" x1="17.5" y1="0" x2="17.5" y2="35" gradientUnits="userSpaceOnUse">
<stop stop-color="#42A9A3"/>
<stop offset="0.333333" stop-color="#367CA3"/>
<stop offset="0.65625" stop-color="#3432AF"/>
<stop offset="1" stop-color="#6C3696"/>
</linearGradient>
</defs>
</svg>
